<svg version="1.1" viewBox="0.0 0.0 960.0 270.23622047244095" fill="none" stroke="none" stroke-linecap="square" stroke-miterlimit="10" xmlns:xlink="http://www.w3.org/1999/xlink" xmlns="http://www.w3.org/2000/svg"><clipPath id="p.0"><path d="m0 0l960.0 0l0 270.2362l-960.0 0l0 -270.2362z" clip-rule="nonzero"/></clipPath><g clip-path="url(#p.0)"><path fill="#000000" fill-opacity="0.0" d="m0 0l960.0 0l0 270.2362l-960.0 0z" fill-rule="evenodd"/><path fill="#000000" fill-opacity="0.0" d="m0 0l960.0 0l0 270.3622l-960.0 0z" fill-rule="evenodd"/><path fill="#f2f3ff" d="m371.9582 80.7491l-15.1875 -51.84375l10.296875 0l9.71875 35.640625l9.71875 -35.5625l10.296875 -0.078125l9.71875 35.640625l9.71875 -35.640625l10.296875 0l-15.1875 51.84375l-9.65625 0l-10.03125 -34.984375l-10.046875 34.984375l-9.65625 0zm73.513 1.078125q-5.859375 0 -10.296875 -2.625q-4.421875 -2.625 -6.890625 -7.25q-2.46875 -4.625 -2.46875 -10.640625q0 -6.09375 2.515625 -10.71875q2.53125 -4.625 6.953125 -7.203125q4.4375 -2.59375 10.1875 -2.59375q5.875 0 10.3125 2.625q4.453125 2.625 6.9375 7.25q2.484375 4.625 2.484375 10.640625q0 6.046875 -2.5 10.671875q-2.5 4.625 -6.953125 7.234375q-4.4375 2.609375 -10.28125 2.609375zm0 -9.140625q4.71875 0 7.03125 -3.1875q2.328125 -3.1875 2.328125 -8.1875q0 -5.1875 -2.359375 -8.28125q-2.34375 -3.09375 -7.0 -3.09375q-3.203125 0 -5.25 1.4375q-2.046875 1.4375 -3.046875 4.0q-0.984375 2.546875 -0.984375 5.9375q0 5.21875 2.359375 8.296875q2.359375 3.078125 6.921875 3.078125zm27.659668 8.0625l0 -38.875l8.640625 0l0 9.5l-0.9375 -1.21875q0.75 -2.015625 2.0 -3.671875q1.265625 -1.65625 3.109375 -2.75q1.40625 -0.859375 3.0625 -1.34375q1.65625 -0.484375 3.40625 -0.609375q1.765625 -0.125 3.53125 0.09375l0 9.140625q-1.609375 -0.5 -3.765625 -0.34375q-2.140625 0.15625 -3.859375 0.984375q-1.734375 0.796875 -2.921875 2.109375q-1.1875 1.3125 -1.796875 3.09375q-0.609375 1.78125 -0.609375 4.015625l0 19.875l-9.859375 0zm29.585876 0l0.078125 -51.84375l9.921875 0l0 31.6875l13.1875 -18.71875l12.09375 0l-14.046875 19.4375l14.984375 19.4375l-12.75 0l-13.46875 -18.71875l0 18.71875l-10.0 0zm40.540894 -44.28125l0 -8.640625l9.78125 0l0 8.640625l-9.78125 0zm0 44.28125l0 -38.875l9.78125 0l0 38.875l-9.78125 0zm38.077637 1.078125q-5.859375 0 -10.296875 -2.625q-4.421875 -2.625 -6.890625 -7.25q-2.46875 -4.625 -2.46875 -10.640625q0 -6.09375 2.515625 -10.71875q2.53125 -4.625 6.953125 -7.203125q4.4375 -2.59375 10.1875 -2.59375q5.875 0 10.3125 2.625q4.453125 2.625 6.9375 7.25q2.484375 4.625 2.484375 10.640625q0 6.046875 -2.5 10.671875q-2.5 4.625 -6.953125 7.234375q-4.4375 2.609375 -10.28125 2.609375zm0 -9.140625q4.71875 0 7.03125 -3.1875q2.328125 -3.1875 2.328125 -8.1875q0 -5.1875 -2.359375 -8.28125q-2.34375 -3.09375 -7.0 -3.09375q-3.203125 0 -5.25 1.4375q-2.046875 1.4375 -3.046875 4.0q-0.984375 2.546875 -0.984375 5.9375q0 5.21875 2.359375 8.296875q2.359375 3.078125 6.921875 3.078125z" fill-rule="nonzero"/><path fill="#f2f3ff" d="m234.09653 158.5091l0 -45.75l-17.671875 0l0 -6.09375l41.765625 0l0 6.09375l-17.6875 0l0 45.75l-6.40625 0zm57.528137 0l0 -19.46875q0 -2.78125 -0.484375 -5.328125q-0.484375 -2.5625 -1.6875 -4.59375q-1.203125 -2.03125 -3.25 -3.21875q-2.03125 -1.1875 -5.125 -1.1875q-2.40625 0 -4.375 0.8125q-1.953125 0.796875 -3.359375 2.453125q-1.40625 1.65625 -2.1875 4.15625q-0.765625 2.5 -0.765625 5.890625l-4.21875 -1.296875q0 -5.65625 2.03125 -9.703125q2.046875 -4.046875 5.734375 -6.21875q3.6875 -2.1875 8.6875 -2.1875q3.78125 0 6.4375 1.1875q2.671875 1.1875 4.4375 3.15625q1.765625 1.953125 2.765625 4.390625q1.015625 2.421875 1.421875 4.9375q0.421875 2.5 0.421875 4.734375l0 21.484375l-6.484375 0zm-27.71875 0l0 -51.84375l5.765625 0l0 28.625l0.71875 0l0 23.21875l-6.484375 0zm60.414642 1.078125q-5.734375 0 -10.0 -2.53125q-4.265625 -2.546875 -6.640625 -7.09375q-2.375 -4.5625 -2.375 -10.640625q0 -6.375 2.34375 -11.03125q2.34375 -4.671875 6.53125 -7.203125q4.203125 -2.53125 9.84375 -2.53125q5.875 0 10.0 2.703125q4.125 2.6875 6.1875 7.703125q2.078125 5.0 1.78125 11.90625l-6.484375 0l0 -2.296875q-0.109375 -7.171875 -2.921875 -10.71875q-2.796875 -3.546875 -8.34375 -3.546875q-5.9375 0 -9.03125 3.828125q-3.09375 3.8125 -3.09375 10.9375q0 6.875 3.09375 10.65625q3.09375 3.78125 8.8125 3.78125q3.859375 0 6.703125 -1.765625q2.84375 -1.765625 4.46875 -5.078125l6.15625 2.125q-2.28125 5.140625 -6.828125 7.96875q-4.546875 2.828125 -10.203125 2.828125zm-14.359375 -18.71875l0 -5.140625l28.71875 0l0 5.140625l-28.71875 0zm62.697266 17.640625l-11.875 -38.921875l6.375 0.046875l8.671875 28.4375l8.75 -28.4375l5.65625 0l8.703125 28.4375l8.71875 -28.4375l6.328125 0l-11.875 38.875l-5.328125 0l-9.390625 -29.5625l-9.40625 29.5625l-5.328125 0zm63.226166 1.078125q-5.734375 0 -10.0 -2.53125q-4.265625 -2.546875 -6.640625 -7.09375q-2.375 -4.5625 -2.375 -10.640625q0 -6.375 2.34375 -11.03125q2.34375 -4.671875 6.53125 -7.203125q4.203125 -2.53125 9.84375 -2.53125q5.875 0 10.0 2.703125q4.125 2.6875 6.1875 7.703125q2.078125 5.0 1.78125 11.90625l-6.484375 0l0 -2.296875q-0.109375 -7.171875 -2.921875 -10.71875q-2.796875 -3.546875 -8.34375 -3.546875q-5.9375 0 -9.03125 3.828125q-3.09375 3.8125 -3.09375 10.9375q0 6.875 3.09375 10.65625q3.09375 3.78125 8.8125 3.78125q3.859375 0 6.703125 -1.765625q2.84375 -1.765625 4.46875 -5.078125l6.15625 2.125q-2.28125 5.140625 -6.828125 7.96875q-4.546875 2.828125 -10.203125 2.828125zm-14.359375 -18.71875l0 -5.140625l28.71875 0l0 5.140625l-28.71875 0zm57.875397 18.71875q-5.46875 0 -9.21875 -2.71875q-3.734375 -2.71875 -5.671875 -7.375q-1.921875 -4.671875 -1.921875 -10.453125q0 -5.875 1.921875 -10.515625q1.9375 -4.640625 5.6875 -7.296875q3.765625 -2.671875 9.25 -2.671875q5.390625 0 9.296875 2.6875q3.90625 2.671875 5.984375 7.3125q2.09375 4.640625 2.09375 10.484375q0 5.828125 -2.09375 10.46875q-2.078125 4.640625 -5.984375 7.359375q-3.90625 2.71875 -9.34375 2.71875zm-17.890625 -1.078125l0 -51.84375l6.453125 0l0 23.21875l-0.71875 0l0 28.625l-5.734375 0zm17.109375 -4.78125q3.84375 0 6.359375 -1.9375q2.53125 -1.953125 3.78125 -5.28125q1.265625 -3.34375 1.265625 -7.46875q0 -4.109375 -1.25 -7.421875q-1.234375 -3.3125 -3.8125 -5.25q-2.5625 -1.953125 -6.53125 -1.953125q-3.78125 0 -6.265625 1.859375q-2.484375 1.84375 -3.703125 5.140625q-1.21875 3.296875 -1.21875 7.625q0 4.234375 1.203125 7.578125q1.203125 3.328125 3.71875 5.21875q2.53125 1.890625 6.453125 1.890625zm48.8031 4.78125l-11.875 -38.921875l6.375 0.046875l8.671875 28.4375l8.75 -28.4375l5.65625 0l8.703125 28.4375l8.71875 -28.4375l6.328125 0l-11.875 38.875l-5.328125 0l-9.390625 -29.5625l-9.40625 29.5625l-5.328125 0zm62.92932 1.078125q-5.796875 0 -9.984375 -2.625q-4.1875 -2.625 -6.46875 -7.265625q-2.265625 -4.65625 -2.265625 -10.65625q0 -6.125 2.296875 -10.734375q2.3125 -4.609375 6.515625 -7.171875q4.21875 -2.578125 9.90625 -2.578125q5.84375 0 10.046875 2.609375q4.21875 2.609375 6.46875 7.234375q2.25 4.625 2.25 10.640625q0 6.078125 -2.28125 10.703125q-2.265625 4.625 -6.484375 7.234375q-4.203125 2.609375 -10.0 2.609375zm0 -6.078125q6.046875 0 9.0 -4.03125q2.953125 -4.03125 2.953125 -10.4375q0 -6.59375 -2.984375 -10.5q-2.984375 -3.90625 -8.96875 -3.90625q-4.0625 0 -6.6875 1.84375q-2.625 1.828125 -3.921875 5.078125q-1.296875 3.234375 -1.296875 7.484375q0 6.546875 3.015625 10.515625q3.03125 3.953125 8.890625 3.953125zm26.689087 5.0l0 -38.875l5.71875 0l0 9.390625l-0.9375 -1.21875q0.6875 -1.8125 1.78125 -3.3125q1.09375 -1.515625 2.46875 -2.484375q1.515625 -1.234375 3.421875 -1.875q1.90625 -0.65625 3.875 -0.78125q1.984375 -0.125 3.71875 0.28125l0 6.0q-2.015625 -0.53125 -4.4375 -0.28125q-2.40625 0.25 -4.453125 1.765625q-1.875 1.328125 -2.90625 3.234375q-1.015625 1.90625 -1.421875 4.125q-0.390625 2.21875 -0.390625 4.515625l0 19.515625l-6.4375 0zm26.845215 0l0.046875 -51.84375l6.46875 0l0 31.6875l16.3125 -18.71875l8.3125 0l-17.171875 19.4375l19.1875 19.4375l-8.953125 0l-17.6875 -18.71875l0 18.71875l-6.515625 0zm52.890625 1.078125q-5.734375 0 -10.0 -2.53125q-4.265625 -2.546875 -6.640625 -7.09375q-2.375 -4.5625 -2.375 -10.640625q0 -6.375 2.34375 -11.03125q2.34375 -4.671875 6.53125 -7.203125q4.203125 -2.53125 9.84375 -2.53125q5.875 0 10.0 2.703125q4.125 2.6875 6.1875 7.703125q2.078125 5.0 1.78125 11.90625l-6.484375 0l0 -2.296875q-0.109375 -7.171875 -2.921875 -10.71875q-2.796875 -3.546875 -8.34375 -3.546875q-5.9375 0 -9.03125 3.828125q-3.09375 3.8125 -3.09375 10.9375q0 6.875 3.09375 10.65625q3.09375 3.78125 8.8125 3.78125q3.859375 0 6.703125 -1.765625q2.84375 -1.765625 4.46875 -5.078125l6.15625 2.125q-2.28125 5.140625 -6.828125 7.96875q-4.546875 2.828125 -10.203125 2.828125zm-14.359375 -18.71875l0 -5.140625l28.71875 0l0 5.140625l-28.71875 0zm40.031616 17.640625l0 -38.875l5.71875 0l0 9.390625l-0.9375 -1.21875q0.6875 -1.8125 1.78125 -3.3125q1.09375 -1.515625 2.46875 -2.484375q1.515625 -1.234375 3.421875 -1.875q1.90625 -0.65625 3.875 -0.78125q1.984375 -0.125 3.71875 0.28125l0 6.0q-2.015625 -0.53125 -4.4375 -0.28125q-2.40625 0.25 -4.453125 1.765625q-1.875 1.328125 -2.90625 3.234375q-1.015625 1.90625 -1.421875 4.125q-0.390625 2.21875 -0.390625 4.515625l0 19.515625l-6.4375 0z" fill-rule="nonzero"/><path fill="#f2f3ff" d="m310.3879 236.26909l0 -41.0q0 -1.515625 0.140625 -3.078125q0.140625 -1.5625 0.640625 -3.0625q0.515625 -1.5 1.671875 -2.75q1.328125 -1.484375 2.90625 -2.109375q1.59375 -0.625 3.21875 -0.765625q1.640625 -0.15625 3.125 -0.15625l4.921875 0l0 5.328125l-4.5625 0q-2.84375 0 -4.25 1.390625q-1.40625 1.390625 -1.40625 4.1875l0 42.015625l-6.40625 0zm-6.59375 -33.59375l0 -5.28125l23.21875 0l0 5.28125l-23.21875 0zm28.990631 33.59375l0 -38.875l5.71875 0l0 9.390625l-0.9375 -1.21875q0.6875 -1.8125 1.78125 -3.3125q1.09375 -1.515625 2.46875 -2.484375q1.515625 -1.234375 3.421875 -1.875q1.90625 -0.65625 3.875 -0.78125q1.984375 -0.125 3.71875 0.28125l0 6.0q-2.015625 -0.53125 -4.4375 -0.28125q-2.40625 0.25 -4.453125 1.765625q-1.875 1.328125 -2.90625 3.234375q-1.015625 1.90625 -1.421875 4.125q-0.390625 2.21875 -0.390625 4.515625l0 19.515625l-6.4375 0zm36.678894 1.078125q-4.359375 0 -7.296875 -1.59375q-2.921875 -1.609375 -4.421875 -4.234375q-1.5 -2.625 -1.5 -5.765625q0 -3.0625 1.171875 -5.3125q1.171875 -2.25 3.296875 -3.734375q2.125 -1.5 5.078125 -2.359375q2.765625 -0.765625 6.203125 -1.3125q3.4375 -0.5625 6.96875 -1.03125q3.53125 -0.46875 6.59375 -0.890625l-2.3125 1.328125q0.109375 -5.1875 -2.078125 -7.671875q-2.171875 -2.484375 -7.5 -2.484375q-3.515625 0 -6.171875 1.609375q-2.640625 1.59375 -3.71875 5.1875l-6.09375 -1.828125q1.40625 -5.109375 5.4375 -8.015625q4.03125 -2.921875 10.625 -2.921875q5.296875 0 9.09375 1.890625q3.796875 1.875 5.453125 5.703125q0.828125 1.796875 1.046875 3.90625q0.21875 2.09375 0.21875 4.40625l0 24.046875l-5.703125 0l0 -9.328125l1.34375 0.875q-2.203125 4.703125 -6.140625 7.125q-3.9375 2.40625 -9.59375 2.40625zm0.96875 -5.359375q3.453125 0 5.984375 -1.234375q2.546875 -1.25 4.09375 -3.28125q1.546875 -2.046875 2.015625 -4.453125q0.546875 -1.796875 0.59375 -4.0q0.0625 -2.21875 0.0625 -3.40625l2.234375 0.96875q-3.140625 0.421875 -6.171875 0.828125q-3.015625 0.390625 -5.71875 0.84375q-2.703125 0.453125 -4.859375 1.0625q-1.578125 0.5 -2.96875 1.296875q-1.390625 0.78125 -2.234375 2.03125q-0.84375 1.234375 -0.84375 3.078125q0 1.578125 0.8125 3.03125q0.8125 1.4375 2.515625 2.34375q1.71875 0.890625 4.484375 0.890625zm74.953125 4.28125l0.03125 -24.875q0 -4.359375 -2.328125 -6.8125q-2.3125 -2.46875 -6.015625 -2.46875q-2.15625 0 -4.109375 0.984375q-1.9375 0.984375 -3.171875 3.09375q-1.21875 2.109375 -1.21875 5.375l-3.390625 -1.359375q-0.0625 -4.140625 1.71875 -7.25q1.78125 -3.125 4.875 -4.84375q3.09375 -1.734375 6.984375 -1.734375q6.078125 0 9.5625 3.6875q3.5 3.6875 3.5 9.921875l-0.03125 26.28125l-6.40625 0zm-46.515625 0l0 -38.875l5.734375 0l0 10.40625l0.71875 0l0 28.46875l-6.453125 0zm23.296875 0l0.03125 -24.625q0 -4.46875 -2.3125 -7.0q-2.296875 -2.53125 -6.109375 -2.53125q-3.78125 0 -6.125 2.59375q-2.328125 2.578125 -2.328125 6.859375l-3.390625 -2.015625q0 -3.765625 1.796875 -6.75q1.796875 -3.0 4.890625 -4.703125q3.109375 -1.71875 7.03125 -1.71875q3.921875 0 6.828125 1.65625q2.921875 1.65625 4.5 4.734375q1.59375 3.078125 1.59375 7.328125l-0.03125 26.171875l-6.375 0zm55.513794 1.078125q-5.734375 0 -10.0 -2.53125q-4.265625 -2.546875 -6.640625 -7.09375q-2.375 -4.5625 -2.375 -10.640625q0 -6.375 2.34375 -11.03125q2.34375 -4.671875 6.53125 -7.203125q4.203125 -2.53125 9.84375 -2.53125q5.875 0 10.0 2.703125q4.125 2.6875 6.1875 7.703125q2.078125 5.0 1.78125 11.90625l-6.484375 0l0 -2.296875q-0.109375 -7.171875 -2.921875 -10.71875q-2.796875 -3.546875 -8.34375 -3.546875q-5.9375 0 -9.03125 3.828125q-3.09375 3.8125 -3.09375 10.9375q0 6.875 3.09375 10.65625q3.09375 3.78125 8.8125 3.78125q3.859375 0 6.703125 -1.765625q2.84375 -1.765625 4.46875 -5.078125l6.15625 2.125q-2.28125 5.140625 -6.828125 7.96875q-4.546875 2.828125 -10.203125 2.828125zm-14.359375 -18.71875l0 -5.140625l28.71875 0l0 5.140625l-28.71875 0zm46.85727 17.640625l-11.875 -38.921875l6.375 0.046875l8.6718445 28.4375l8.75 -28.4375l5.65625 0l8.703125 28.4375l8.71875 -28.4375l6.328125 0l-11.875 38.875l-5.328125 0l-9.390625 -29.5625l-9.40625 29.5625l-5.3280945 0zm62.92929 1.078125q-5.796875 0 -9.984375 -2.625q-4.1875 -2.625 -6.46875 -7.265625q-2.265625 -4.65625 -2.265625 -10.65625q0 -6.125 2.296875 -10.734375q2.3125 -4.609375 6.515625 -7.171875q4.21875 -2.578125 9.90625 -2.578125q5.84375 0 10.046875 2.609375q4.21875 2.609375 6.46875 7.234375q2.25 4.625 2.25 10.640625q0 6.078125 -2.28125 10.703125q-2.265625 4.625 -6.484375 7.234375q-4.203125 2.609375 -10.0 2.609375zm0 -6.078125q6.046875 0 9.0 -4.03125q2.953125 -4.03125 2.953125 -10.4375q0 -6.59375 -2.984375 -10.5q-2.984375 -3.90625 -8.96875 -3.90625q-4.0625 0 -6.6875 1.84375q-2.625 1.828125 -3.921875 5.078125q-1.296875 3.234375 -1.296875 7.484375q0 6.546875 3.015625 10.515625q3.03125 3.953125 8.890625 3.953125zm26.689087 5.0l0 -38.875l5.71875 0l0 9.390625l-0.9375 -1.21875q0.6875 -1.8125 1.78125 -3.3125q1.09375 -1.515625 2.46875 -2.484375q1.515625 -1.234375 3.421875 -1.875q1.90625 -0.65625 3.875 -0.78125q1.984375 -0.125 3.71875 0.28125l0 6.0q-2.015625 -0.53125 -4.4375 -0.28125q-2.40625 0.25 -4.453125 1.765625q-1.875 1.328125 -2.90625 3.234375q-1.015625 1.90625 -1.421875 4.125q-0.390625 2.21875 -0.390625 4.515625l0 19.515625l-6.4375 0zm26.845215 0l0.046875 -51.84375l6.46875 0l0 31.6875l16.3125 -18.71875l8.3125 0l-17.171875 19.4375l19.1875 19.4375l-8.953125 0l-17.6875 -18.71875l0 18.71875l-6.515625 0z" fill-rule="nonzero"/></g></svg>